<?xml version="1.0" ?><!DOCTYPE svg  PUBLIC '-//W3C//DTD SVG 1.1//EN'  'http://www.w3.org/Graphics/SVG/1.1/DTD/svg11.dtd'><svg enable-background="new 0 0 512 512" id="Layer_1" version="1.1" viewBox="0 0 512 512" xml:space="preserve" xmlns="http://www.w3.org/2000/svg" xmlns:xlink="http://www.w3.org/1999/xlink"><g><path d="M461.1,70.3c4.5-2.7,9.1-1.2,13.5,0c17.1,4.7,29.2,20.4,29.5,38.3c0.1,4.5-0.1,9-0.1,13.4   c-1.3,0-2.1,0.8-3.1,1.5c-12.6,9-25.4,18-37.9,27.1c-5.1,3.7-10.7,6.6-15,11.3c-1.8,0-3.1,1.2-4.4,2.1   c-41.6,28.7-83.2,57.3-124.7,86c-20.6,14.2-41.2,28.6-61.8,42.9c-0.6,0-1.2,0-1.7,0c-0.9-0.7-1.7-1.6-2.6-2.2   c-50.7-35.3-101.4-70.6-152.1-105.9c-10.4-7.2-20.8-14.5-31.2-21.7c-1.2-0.8-2.3-2.5-3.8-1.6c-1.4,0.8-0.5,2.7-0.7,4.2   c-0.1,0.5,0,1,0,1.5c0,83.5,0,167,0,250.5c0,1.8,0.1,3.7,0.2,5.5c0,1-0.1,1.9-0.1,2.9c-19,2.3-36.3-0.3-48.2-17.5   c-4.3-6.3-6.8-13.3-6.8-21.1c0-93.3-0.1-186.5,0.1-279.8c0-19,15.4-35.8,34.3-38.5c3-0.4,6-0.8,8.6,1.2c0.6,0.6,1.1,1.2,1.8,1.7   c66.1,49,132.2,98,198.3,147.1c2.6,1.9,4.3,1.8,6.9-0.1c52.8-39,105.7-77.9,158.5-116.8C432.6,91.6,446.8,80.9,461.1,70.3z" fill="#E65A4D"/><path d="M461.1,70.3c-14.3,10.6-28.5,21.3-42.8,31.9C365.5,141.2,312.6,180,259.8,219c-2.6,1.9-4.2,2-6.9,0.1   C186.9,170,120.8,121.1,54.7,72c-0.7-0.5-1.2-1.1-1.8-1.7c1.2-2,3.3-1.3,5-1.3c132.7,0,265.5,0,398.2,0   C457.8,69,459.8,68.3,461.1,70.3z" fill="#F6F4EC"/><path d="M65,423c-0.1-1.8-0.2-3.7-0.2-5.5c0-83.5,0-167,0-250.5c0-0.5-0.1-1,0-1.5c0.2-1.4-0.7-3.3,0.7-4.2   c1.5-0.9,2.7,0.8,3.8,1.6c10.4,7.2,20.8,14.5,31.2,21.7c50.7,35.3,101.4,70.6,152.1,105.9c0.9,0.7,1.8,1.5,2.6,2.2   c-0.4,0.4-0.9,0.7-1.3,1.1c-0.3,0.3-0.7,0.7-1,1c-0.8,0-1.6,0.2-2,1c-0.3,0.3-0.7,0.7-1,1c-0.1,0.2-0.3,0.3-0.4,0.5   c0.2-0.1,0.3-0.3,0.5-0.4c0.3-0.3,0.7-0.7,1-1c0.8,0,1.6-0.2,2-1c0.3-0.3,0.7-0.7,1-1c1,0,2-0.1,3-0.1c13.9,9.7,27.9,19.3,41.8,29   c41.4,28.7,82.8,57.3,124.1,86.2c7.4,5.2,15.5,9.7,22.1,16c-1.8,1.7-4,0.6-6,0.9c0.1-2.3-1.9-2.9-3.4-3.9   c-7.6-5.3-15.4-10.4-22.8-15.9c-12.4-9.1-25-17.8-37.6-26.6c-10.5-7.3-20.9-14.9-31.7-21.8c-9.4-6-18.1-13.2-27.5-19.3   c-10.6-6.8-20.6-14.4-31.1-21.3c-8.7-5.7-17.2-11.8-25.7-17.8c-1.7-1.2-3.2-1.7-5-0.5c-3.6,2.6-8.2,4.3-11.2,7.1   c-8.6,7.9-19.1,13-28.1,20.2c-11.5,9.1-23.9,17.2-36.2,25.3c-20.4,13.5-40.2,28.1-60.5,41.7c-12.1,8.1-24.1,16.3-35.7,25.2   c-3.2,2.4-7.5,3.5-9.5,7.5c-2-0.2-4.2,0.6-6.1-0.7c35.8-25,71.6-49.9,107.3-74.9c4.7-3.3,10-5.9,13.9-10.3c0.7-0.2,1.6-0.3,1.5-1.3   c0-0.1-0.2-0.3-0.3-0.3c-1-0.1-1.2,0.7-1.4,1.4c-3.6,0.2-5.8,3-8.5,4.8C141.3,370.8,103.1,396.9,65,423z M237,306   c0.3-0.3,0.7-0.7,1-1c0.8,0,1.6-0.2,2-1c0.3-0.3,0.7-0.7,1-1c0.8,0,1.6-0.2,2-1c0.1-0.2,0.3-0.3,0.4-0.5c-0.2,0.1-0.3,0.3-0.5,0.4   c-0.8,0-1.6,0.2-2,1c-0.3,0.3-0.7,0.7-1,1c-0.8,0-1.6,0.2-2,1C237.6,305.3,237.3,305.6,237,306c-0.2,0.1-0.4,0.2-0.5,0.4   C236.7,306.3,236.9,306.2,237,306z M224,314.9c-0.8,0-1.6,0.2-2,1c-0.6,0.1-1.4,0.1-1.5,1c0,0.2,0.4,0.6,0.6,0.6   c0.8-0.1,0.9-0.8,1-1.4C222.9,316,223.6,315.9,224,314.9c0.4-0.2,0.8-0.6,1.1-0.9c0.8,0,1.6-0.2,2-1c0.3-0.3,0.7-0.7,1-1   c0.8,0,1.6-0.2,2-1c0.1-0.2,0.3-0.3,0.4-0.5c-0.2,0.1-0.3,0.3-0.5,0.4c-0.8,0-1.6,0.2-2,1c-0.3,0.3-0.7,0.7-1,1c-0.8,0-1.6,0.2-2,1   C224.6,314.3,224.3,314.6,224,314.9z M211,324c-0.8,0-1.6,0.2-2,1c-0.8,0.1-1.6,0.2-1.5,1.3c0,0.1,0.2,0.3,0.3,0.3   c1.1,0.1,1.2-0.7,1.3-1.5C209.9,325,210.6,324.8,211,324c0.4-0.2,0.7-0.6,1.1-0.9c0.8,0,1.6-0.2,2-1c0.3-0.3,0.7-0.7,1-1   c0.8,0,1.6-0.2,2-1c0.1-0.2,0.3-0.3,0.4-0.5c-0.2,0.1-0.3,0.3-0.5,0.4c-0.8,0-1.6,0.2-2,1c-0.3,0.3-0.7,0.7-1,1c-0.8,0-1.6,0.2-2,1   C211.6,323.3,211.3,323.6,211,324z M201,331.1c0.8-0.1,1.6-0.2,1.5-1.3c0-0.1-0.2-0.3-0.3-0.3c-1.1-0.1-1.2,0.7-1.3,1.5   c-0.8,0-1.5,0.2-2,1c-1.4,0.1-2.4,0.8-3,2c-0.7,0.2-1.6,0.2-1.5,1.3c0,0.1,0.2,0.3,0.3,0.3c1,0.1,1.2-0.7,1.3-1.5   c1.4,0,2.8-0.1,3-2C199.9,332,200.6,331.8,201,331.1z M233.8,307.4c-0.1,0.3-0.3,0.6-0.4,0.8c0.3,0.1,0.6,0.4,0.8,0.3   c0.2-0.1,0.3-0.5,0.4-0.8C234.3,307.6,234,307.5,233.8,307.4z M205.7,328.1c-0.1-0.3-0.2-0.7-0.4-0.7c-0.2-0.1-0.7,0.1-0.8,0.3   c-0.3,0.4-0.1,0.9,0.4,0.9C205.2,328.6,205.4,328.3,205.7,328.1z M247.3,299.6c0.1-0.3,0.2-0.6,0.4-0.8c-0.3-0.1-0.6-0.4-0.8-0.3   c-0.2,0.1-0.3,0.5-0.4,0.8C246.7,299.4,247,299.5,247.3,299.6z M192.7,337c-0.2-0.3-0.4-0.6-0.5-0.7c-0.2,0-0.7,0.2-0.7,0.4   c-0.2,0.5,0.1,0.9,0.6,0.8C192.3,337.5,192.5,337.2,192.7,337z" fill="#E6E3D6"/><path d="M445,425.1c-6.6-6.4-14.6-10.8-22.1-16c-41.3-28.8-82.7-57.5-124.1-86.2c-13.9-9.7-27.9-19.3-41.8-29   c0-0.3-0.1-0.7-0.1-1c20.6-14.3,41.2-28.6,61.8-42.9c41.6-28.7,83.2-57.3,124.7-86c1.3-0.9,2.6-2.1,4.4-2.1c0,88,0,176,0,264.1   C447,425.7,446,425.4,445,425.1z" fill="#B6B5AC"/><path d="M73,426c1.9-4,6.3-5.1,9.5-7.5c11.6-8.8,23.6-17.1,35.7-25.2c20.3-13.7,40.1-28.2,60.5-41.7   c12.3-8.1,24.7-16.2,36.2-25.3c9.1-7.2,19.5-12.3,28.1-20.2c3.1-2.8,7.6-4.5,11.2-7.1c1.7-1.3,3.2-0.8,5,0.5   c8.5,6,17,12.1,25.7,17.8c10.5,6.9,20.5,14.6,31.1,21.3c9.4,6,18.1,13.2,27.5,19.3c10.8,6.9,21.2,14.5,31.7,21.8   c12.6,8.8,25.3,17.5,37.6,26.6c7.5,5.5,15.2,10.6,22.8,15.9c1.4,1,3.5,1.6,3.4,3.9C317,426,195,426,73,426z" fill="#E6E3D6"/><path d="M448,426c0-88,0-176,0-264.1c4.3-4.7,9.9-7.6,15-11.3c12.6-9.2,25.3-18.1,37.9-27.1   c0.9-0.7,1.8-1.5,3.1-1.5c0.1,1.7,0.2,3.3,0.2,5c0,85.1,0,170.3,0.1,255.4c0,5.8-0.2,11.6-1.6,17.4c-2.5,10.7-8.9,18.1-19.3,21.8   C471.9,425.6,460,426.7,448,426z" fill="#B1392F"/><path d="M188.1,340.1c-3.9,4.4-9.2,7-13.9,10.3c-35.7,25-71.5,50-107.3,74.9c-0.7,0.2-1.3,0.4-2,0.6   c0-1,0.1-1.9,0.1-2.9c38.2-26.1,76.3-52.2,114.5-78.3c2.7-1.8,4.8-4.7,8.5-4.8L188.1,340.1z" fill="#BEBDB3"/><path d="M257,292.9c0,0.3,0,0.7,0.1,1c-1,0-2,0.1-3,0.1c0,0,0,0,0,0c0.4-0.4,0.9-0.7,1.3-1.1   C255.8,292.9,256.4,292.9,257,292.9z" fill="#C7C5BB"/><path d="M195.9,333.9c0.6-1.2,1.6-1.9,3-2l0.1,0.1c-0.2,1.9-1.6,2-3,2L195.9,333.9z" fill="#BEBDB3"/><path d="M233.8,307.4c0.3,0.1,0.6,0.2,0.8,0.3c-0.1,0.3-0.2,0.7-0.4,0.8c-0.2,0.1-0.5-0.2-0.8-0.3   C233.5,308,233.6,307.7,233.8,307.4z" fill="#C4C2B8"/><path d="M200.9,330.9c0.1-0.8,0.3-1.5,1.3-1.5c0.1,0,0.3,0.2,0.3,0.3c0,1.1-0.8,1.1-1.5,1.3   C201,331.1,200.9,330.9,200.9,330.9z" fill="#BEBDB3"/><path d="M205.7,328.1c-0.2,0.2-0.5,0.5-0.7,0.4c-0.5,0-0.7-0.5-0.4-0.9c0.1-0.2,0.6-0.3,0.8-0.3   C205.5,327.4,205.5,327.9,205.7,328.1z" fill="#BEBDB3"/><path d="M247.3,299.6c-0.3-0.1-0.6-0.2-0.8-0.4c0.1-0.3,0.2-0.7,0.4-0.8c0.2-0.1,0.5,0.2,0.8,0.3   C247.5,299,247.4,299.3,247.3,299.6z" fill="#C7C5BB"/><path d="M209.1,325.1c-0.1,0.8-0.3,1.5-1.3,1.5c-0.1,0-0.3-0.2-0.3-0.3c0-1.1,0.8-1.1,1.5-1.3   C209,325,209.1,325.1,209.1,325.1z" fill="#BEBDB3"/><path d="M222.1,316.1c-0.1,0.7-0.2,1.3-1,1.4c-0.2,0-0.6-0.4-0.6-0.6c0.1-0.8,0.8-0.9,1.5-1   C222,316,222.1,316.1,222.1,316.1z" fill="#C2C0B6"/><path d="M196.1,334.1c-0.2,0.8-0.3,1.5-1.3,1.5c-0.1,0-0.3-0.2-0.3-0.3c-0.1-1.1,0.8-1.1,1.5-1.3   C195.9,333.9,196.1,334.1,196.1,334.1z" fill="#BEBDB3"/><path d="M192.7,337c-0.2,0.2-0.4,0.5-0.6,0.5c-0.6,0.1-0.8-0.3-0.6-0.8c0.1-0.2,0.5-0.4,0.7-0.4   C192.3,336.4,192.5,336.8,192.7,337z" fill="#BEBDB3"/><path d="M187.9,339.9c0.2-0.8,0.3-1.5,1.4-1.4c0.1,0,0.3,0.2,0.3,0.3c0.1,1.1-0.8,1.1-1.5,1.3   C188.1,340.1,187.9,339.9,187.9,339.9z" fill="#BEBDB3"/><path d="M240,304c-0.4,0.8-1.2,1-2,1c0,0-0.1-0.1-0.1-0.1C238.4,304.2,239.1,304,240,304L240,304z" fill="#C4C2B8"/><path d="M199,331.9c0.4-0.8,1.2-1,2-1c0,0,0.1,0.1,0.1,0.1c-0.4,0.8-1.2,1-2,1C199.1,332.1,199,331.9,199,331.9z" fill="#BEBDB3"/><path d="M228,312c0.4-0.8,1.2-1,2-1l0.1,0.1C229.6,311.8,228.9,312,228,312L228,312z" fill="#C2C0B6"/><path d="M227,313c-0.4,0.8-1.2,1-2,1L225,314C225.4,313.2,226.1,313,227,313C227,313,227,313,227,313z" fill="#C2C0B6"/><path d="M215,321c0.4-0.8,1.2-1,2-1l0.1,0.1C216.6,320.8,215.9,321,215,321C215,321,215,321,215,321z" fill="#BEBDB3"/><path d="M214,322c-0.4,0.8-1.2,1-2,1L212,323C212.4,322.1,213.1,322,214,322L214,322z" fill="#BEBDB3"/><path d="M211,324c-0.4,0.8-1.2,1-2,1c0,0-0.1-0.1-0.1-0.1C209.4,324.2,210.1,324,211,324C211,324,211,324,211,324z" fill="#BEBDB3"/><path d="M253,295c-0.4,0.8-1.2,1-2,1c0,0-0.1-0.1-0.1-0.1C251.4,295.2,252.1,295,253,295C253,295,253,295,253,295z" fill="#C7C5BB"/><path d="M241,303c0.4-0.8,1.2-1,2-1l0,0C242.6,302.8,241.9,303,241,303C241,303,241,303,241,303z" fill="#C4C2B8"/><path d="M224,315c-0.4,0.8-1.2,1-2,1c0,0-0.1-0.1-0.1-0.1C222.4,315.2,223.1,315,224,315C224,314.9,224,315,224,315   z" fill="#C2C0B6"/><path d="M214,322c0.3-0.3,0.7-0.7,1-1c0,0,0.1,0.1,0.1,0.1C214.7,321.4,214.4,321.7,214,322   C214,322,214,322,214,322z" fill="#BEBDB3"/><path d="M225,314c-0.3,0.3-0.7,0.7-1,1c0,0-0.1-0.1-0.1-0.1C224.3,314.6,224.6,314.3,225,314   C225,314,225,314,225,314z" fill="#C2C0B6"/><path d="M237,306c0.3-0.3,0.7-0.7,1-1c0,0,0.1,0.1,0.1,0.1C237.7,305.4,237.4,305.7,237,306L237,306z" fill="#C4C2B8"/><path d="M230,311c0.2-0.1,0.3-0.3,0.5-0.4C230.3,310.7,230.2,310.9,230,311C230,311,230,311,230,311z" fill="#C2C0B6"/><path d="M243,302c0.2-0.1,0.3-0.3,0.5-0.4C243.3,301.7,243.2,301.9,243,302C243,302,243,302,243,302z" fill="#C4C2B8"/><path d="M250,297c-0.2,0.1-0.3,0.3-0.5,0.4C249.7,297.3,249.8,297.1,250,297C250,297,250,297,250,297z" fill="#C7C5BB"/><path d="M250,297c0.3-0.3,0.7-0.7,1-1c0,0,0.1,0.1,0.1,0.1C250.7,296.4,250.4,296.7,250,297   C250,297,250,297,250,297z" fill="#C7C5BB"/><path d="M240,304c0.3-0.3,0.7-0.7,1-1c0,0,0.1,0.1,0.1,0.1C240.7,303.4,240.4,303.7,240,304   C240,304,240,304,240,304z" fill="#C4C2B8"/><path d="M254,294c-0.3,0.3-0.7,0.7-1,1c0,0-0.1-0.1-0.1-0.1C253.3,294.6,253.6,294.3,254,294   C254,294,254,294,254,294z" fill="#C7C5BB"/><path d="M237,306c-0.2,0.1-0.3,0.3-0.5,0.4C236.7,306.3,236.8,306.1,237,306C237,306,237,306,237,306z" fill="#C4C2B8"/><path d="M217,320c0.2-0.1,0.3-0.3,0.5-0.4C217.3,319.7,217.2,319.9,217,320C217,320,217,320,217,320z" fill="#BEBDB3"/><path d="M228,312c-0.3,0.3-0.7,0.7-1,1c0,0-0.1-0.1-0.1-0.1C227.3,312.6,227.6,312.3,228,312   C228,312,228,312,228,312z" fill="#C2C0B6"/><path d="M212,323c-0.3,0.3-0.7,0.7-1,1c0,0-0.1-0.1-0.1-0.1C211.3,323.6,211.6,323.3,212,323   C212,323,212,323,212,323z" fill="#BEBDB3"/></g></svg>