<svg clip-rule="evenodd" fill-rule="evenodd" stroke-linejoin="round" stroke-miterlimit="2" viewBox="0 0 512 512" xmlns="http://www.w3.org/2000/svg"><path d="m56 56h400v400h-400z" fill="none"/><path d="m161.014 464.013c193.208 0 298.885-160.071 298.885-298.885 0-4.546 0-9.072-.307-13.578 20.558-14.871 38.305-33.282 52.408-54.374-19.171 8.495-39.51 14.065-60.334 16.527 21.924-13.124 38.343-33.782 46.182-58.102-20.619 12.235-43.18 20.859-66.703 25.498-19.862-21.121-47.602-33.112-76.593-33.112-57.682 0-105.145 47.464-105.145 105.144 0 8.002.914 15.979 2.722 23.773-84.418-4.231-163.18-44.161-216.494-109.752-27.724 47.726-13.379 109.576 32.522 140.226-16.715-.495-33.071-5.005-47.677-13.148v1.331c.014 49.814 35.447 93.111 84.275 102.974-15.464 4.217-31.693 4.833-47.431 1.802 13.727 42.685 53.311 72.108 98.14 72.95-37.19 29.227-83.157 45.103-130.458 45.056-8.358-.016-16.708-.522-25.006-1.516 48.034 30.825 103.94 47.18 161.014 47.104" fill="#1da1f2" fill-rule="nonzero"/></svg>