<svg enable-background="new 0 0 120 60" viewBox="0 0 120 60" xmlns="http://www.w3.org/2000/svg" xmlns:xlink="http://www.w3.org/1999/xlink"><clipPath id="a"><path d="m959.4 500-279.6 279.7 279.6 279.7h-319.5l-119.9-119.9-159.8-159.8 279.7-279.7zm-319.5-479.3-519.3 519.3 159.8 159.8 679-679.1h-319.5z"/></clipPath><clipPath id="b"><path d="m959.4 500-279.6 279.7 279.6 279.7h-319.5l-119.9-119.9-159.8-159.8 279.7-279.7zm-319.5-479.3-519.3 519.3 159.8 159.8 679-679.1h-319.5z"/></clipPath><clipPath id="c"><path d="m959.4 500-279.6 279.7 279.6 279.7h-319.5l-119.9-119.9-159.8-159.8 279.7-279.7zm-319.5-479.3-519.3 519.3 159.8 159.8 679-679.1h-319.5z"/></clipPath><clipPath id="d"><path d="m959.4 500-279.6 279.7 279.6 279.7h-319.5l-119.9-119.9-159.8-159.8 279.7-279.7zm-319.5-479.3-519.3 519.3 159.8 159.8 679-679.1h-319.5z"/></clipPath><linearGradient id="e" gradientTransform="matrix(.00970478 0 0 .00970479 -24746.1563 -10233.8672)" gradientUnits="userSpaceOnUse" x1="-20688.2891" x2="-20212.2285" y1="-100372.8516" y2="-100848.9141"><stop offset="0" stop-color="#1a237e" stop-opacity=".4"/><stop offset="1" stop-color="#1a237e" stop-opacity="0"/></linearGradient><clipPath id="f"><path d="m959.4 500-279.6 279.7 279.6 279.7h-319.5l-119.9-119.9-159.8-159.8 279.7-279.7zm-319.5-479.3-519.3 519.3 159.8 159.8 679-679.1h-319.5z"/></clipPath><radialGradient id="g" cx="201582.1875" cy="93969.875" gradientTransform="matrix(.00970478 0 0 .00970479 -24746.1563 -10233.8672)" gradientUnits="userSpaceOnUse" r="5082.8887"><stop offset="0" stop-color="#fff" stop-opacity=".1"/><stop offset="1" stop-color="#fff" stop-opacity="0"/></radialGradient><g transform="matrix(.03881911 0 0 .03881916 -.560501 8.162276)"><g clip-path="url(#a)"><path d="m520 939.5 439.4-439.5h-319.5l-279.6 279.7z" fill="#39cefd"/></g><path clip-path="url(#b)" d="m120.6 540 519.3-519.3h319.5l-679 679.1z" fill="#39cefd"/><path clip-path="url(#c)" d="m639.9 1059.3h319.5l-279.6-279.6-159.8 159.8z" fill="#03569b"/><path clip-path="url(#d)" d="m679.8 779.7-159.8 159.8 237-82.1z" fill="url(#e)"/><g clip-path="url(#f)"><path d="m360.3 779.6 159.8-159.8 159.8 159.8-159.8 159.9z" fill="#16b9fd"/></g><path d="m959.4 500-279.6 279.7 279.6 279.7h-319.5l-119.9-119.9-159.8-159.8 279.7-279.7zm-319.5-479.3-519.3 519.3 159.8 159.8 679-679.1h-319.5z" fill="url(#g)"/></g><g fill="#808080" transform="matrix(1.0352624 0 0 1.0352624 -1.939178 -1.035154)"><path d="m41.1 20.1h10.5v2h-8.3v6.2h7.5v2h-7.5v7.8h-2.1v-18z"/><path d="m54.1 20.1h2.1v18.1h-2.1z"/><path d="m64.1 38.6c-1.6 0-2.7-.5-3.6-1.4-.8-.9-1.2-2.2-1.2-3.8v-8.1h2.1v7.8c0 1.2.3 2.1.8 2.7.6.6 1.3.9 2.3.9.7 0 1.4-.2 1.9-.6.6-.4 1-.9 1.3-1.5s.5-1.3.5-2v-7.3h2.1v12.9h-2v-1.9h-.1c-.4.6-.9 1.2-1.7 1.6-.7.5-1.5.7-2.4.7z"/><path d="m78.7 38.4c-.5 0-1-.1-1.5-.3-.4-.2-.8-.4-1.1-.7s-.6-.7-.8-1.1-.3-.9-.3-1.5v-7.6h-2.3v-1.9h2.3v-3.6h2.1v3.6h3.1v1.9h-3.1v7c0 .7.1 1.2.4 1.6s.8.6 1.4.6c.5 0 1-.1 1.4-.4v2.1c-.3.1-.5.2-.8.3 0 0-.4 0-.8 0z"/><path d="m87.8 38.4c-.5 0-1-.1-1.5-.3-.4-.2-.8-.4-1.1-.7s-.6-.7-.8-1.1-.3-.9-.3-1.5v-7.6h-2.1v-1.9h2.3v-3.6h2.1v3.6h3.1v1.9h-3.1v7c0 .7.1 1.2.4 1.6s.8.6 1.4.6c.5 0 1-.1 1.4-.4v2.1c-.3.1-.5.2-.8.3-.2 0-.6 0-1 0z"/><path d="m97.3 38.6c-1.2 0-2.3-.3-3.3-.9s-1.7-1.4-2.3-2.4c-.5-1-.8-2.2-.8-3.5 0-1.2.3-2.4.8-3.4s1.3-1.9 2.2-2.5 2-.9 3.3-.9 2.4.3 3.3.9 1.6 1.3 2.1 2.3.8 2.1.8 3.4c0 .3 0 .5-.1.7h-10.3c.1 1 .3 1.8.7 2.5s1 1.2 1.6 1.5c.7.3 1.3.5 2 .5 1.7 0 2.9-.8 3.8-2.3l1.8.9c-.6 1-1.3 1.9-2.3 2.5-.8.4-1.9.7-3.3.7zm3.7-8.2c0-.5-.2-1.1-.5-1.6s-.7-1-1.3-1.4-1.3-.6-2.2-.6c-1 0-1.9.3-2.6 1-.7.6-1.1 1.5-1.4 2.6z"/><path d="m105.8 25.3h2v2.1h.1c.3-.7.7-1.3 1.5-1.7.7-.5 1.5-.7 2.3-.7.6 0 1.1.1 1.5.3v2.3c-.5-.3-1.1-.4-1.8-.4-.6 0-1.2.2-1.7.5-.5.4-.9.8-1.3 1.4-.3.6-.5 1.2-.5 1.9v7.2h-2.1z"/></g></svg>